<svg width="64" height="64" xmlns:xlink="http://www.w3.org/1999/xlink" xmlns="http://www.w3.org/2000/svg"><defs><linearGradient id="prefix__d" x1="2.598" x2="10.583" y1="2.836" y2="11.312" gradientUnits="userSpaceOnUse" xlink:href="#prefix__a"/><linearGradient id="prefix__a"><stop stop-color="#fff" offset="0"/><stop stop-color="#fff" stop-opacity="0" offset="1"/></linearGradient><linearGradient id="prefix__e" x1="15.081" x2="12.7" y1="14.816" y2="12.171" gradientUnits="userSpaceOnUse" xlink:href="#prefix__a"/><linearGradient id="prefix__b" x1="8.466" x2="8.466" y1="1.058" y2="15.875" gradientTransform="scale(3.7796)" gradientUnits="userSpaceOnUse"><stop stop-color="#323131" offset="0"/><stop stop-color="#141414" offset="1"/></linearGradient><filter id="prefix__c" x="-.012" y="-.012" width="1.024" height="1.024" color-interpolation-filters="sRGB"><feGaussianBlur stdDeviation=".074"/></filter></defs><path d="M20.26 4c-5.782 0-9.743 1.725-12.321 4.535C5.374 11.331 4 15.34 4 19.876v24.248c0 4.538 1.374 8.545 3.939 11.341C10.517 58.275 14.479 60 20.26 60h23.549c5.782 0 9.743-1.724 12.321-4.535C58.695 52.67 60 49.03 60 44.125V20.786c0-5.935-1.305-9.456-3.87-12.252C53.552 5.725 49.59 4 43.809 4H25.494z" fill="url(#prefix__b)"/><g transform="scale(3.7796)" filter="url(#prefix__c)" opacity=".35"><path d="M5.36 1.058c-1.53 0-2.577.457-3.26 1.2-.678.74-1.042 1.8-1.042 3.001v6.415c0 1.2.364 2.26 1.043 3 .682.744 1.73 1.2 3.26 1.2h6.23c1.53 0 2.577-.456 3.26-1.2.678-.739 1.024-1.702 1.024-3V5.5c0-1.57-.346-2.502-1.024-3.242-.683-.743-1.73-1.2-3.26-1.2H6.745zm0 .264h6.232c1.477 0 2.437.432 3.064 1.116.634.69.954 1.53.954 3.062v6.174c0 1.251-.322 2.134-.954 2.822-.627.684-1.587 1.114-3.064 1.114H5.359c-1.477 0-2.437-.43-3.064-1.114-.625-.682-.973-1.675-.973-2.822V5.26c0-1.148.348-2.14.973-2.822.627-.684 1.587-1.116 3.064-1.116z" fill="url(#prefix__d)"/><path d="M5.36 1.058c-1.53 0-2.577.457-3.26 1.2-.678.74-1.042 1.8-1.042 3.001v6.415c0 1.2.364 2.26 1.043 3 .682.744 1.73 1.2 3.26 1.2h6.23c1.53 0 2.577-.456 3.26-1.2.678-.739 1.024-1.702 1.024-3V5.5c0-1.57-.346-2.502-1.024-3.242-.683-.743-1.73-1.2-3.26-1.2H6.745zm0 .264h6.232c1.477 0 2.437.432 3.064 1.116.634.69.954 1.53.954 3.062v6.174c0 1.251-.322 2.134-.954 2.822-.627.684-1.587 1.114-3.064 1.114H5.359c-1.477 0-2.437-.43-3.064-1.114-.625-.682-.973-1.675-.973-2.822V5.26c0-1.148.348-2.14.973-2.822.627-.684 1.587-1.116 3.064-1.116z" fill="url(#prefix__e)"/></g><path d="M29.725 18.679a1804.988 1804.988 0 013.523-.008c2.782-.009 2.782-.009 4.035.061l.243.013c.667.044 1.332.136 1.919.474l.116.065c.313.178.627.37.882.626v.123l.184.062c.097.093.097.093.192.207l.096.113c.08.11.08.11.142.294-.095.144-.095.144-.238.31l-.155.183c-.144.164-.29.325-.436.485-.27.298-.51.611-.746.935-.094.128-.19.256-.285.383-.472.63-.92 1.27-1.334 1.941l-.095.155c-1.778 2.903-2.792 5.993-2.806 9.407l-.001.145c-.003.515.013 1.018.078 1.53.104.835.026 1.339-.338 2.09l-.126.267-.264.558c-.192.405-.377.813-.563 1.221l-.246.54a689.106 689.106 0 00-.77 1.69l-.057.125a2772.285 2772.285 0 00-1.05 2.314 112.707 112.707 0 01-.5 1.083l-.059.127-.142.305a6245.973 6245.973 0 01-8.611.014c-.956 0-1.913.003-2.869.005l-2.945.004c-.606 0-1.211.001-1.817.003-.416.002-.831.002-1.247.002l-.718.001h-.66l-.348.003c-.997-.007-1.85-.377-2.574-1.057a4.27 4.27 0 01-.434-.533c-.073-.11-.073-.11-.194-.223a11.79 11.79 0 01-.184-.48l-.096-.262-.042-.118c-.046-.127-.046-.127-.11-.26a1.499 1.499 0 01-.074-.55L8 42.819l.001-.256v-.272-.748-.806l.002-1.398.001-2.02a3580.407 3580.407 0 01.005-6.461v-1.183l.007-8.168h.123l.05-.15c.359-1.016 1.003-1.776 1.976-2.245 1.064-.435 2.243-.387 3.371-.388l.456-.002 1.11-.003a2348.856 2348.856 0 015.936-.017h.136l.549-.003a3713.304 3713.304 0 015.991-.015l2.011-.005zm-16.35 6.513l-.077.123-.123.184c-.02.146-.02.146-.016.303v.16c.016.159.058.26.139.397h.122l.05.11c.074.137.147.223.258.33l.11.108.116.112c.28.273.549.546.791.853.084.094.084.094.214.111l.12.034.049.105c.1.19.236.315.39.465l.094.092.296.29.39.382.174.17c.153.166.268.292.261.523-.081.173-.215.253-.365.368v.123l-.184.061c-.136.116-.136.116-.246.246v.123h-.122c-.235.211-.235.211-.369.491l-.246.123-.061.184a9.367 9.367 0 01-.246.123c-.091.08-.18.164-.266.25l-.148.148-.154.155-.156.155-.148.148-.136.136c-.11.104-.11.104-.097.236h-.123v.123l-.184.062c-.263.294-.33.518-.325.904.036.285.209.452.402.65.288.177.546.18.87.138.402-.176.687-.486.97-.814.25-.29.52-.559.793-.828l.146-.146.278-.276.428-.427.675-.675.146-.147a34.924 34.924 0 01.456-.444l.331-.323.17-.162c.406-.38.406-.38.556-.89-.115-.337-.245-.514-.52-.75l-.2-.176-.102-.09a10.932 10.932 0 01-.452-.436l-.088-.089-.18-.181-.286-.29a512.008 512.008 0 01-.813-.819 298.89 298.89 0 00-.502-.505l-.19-.192a77.474 77.474 0 00-.264-.265c-.05-.05-.1-.1-.15-.153-.11-.12-.11-.12-.245-.107v-.123h-.123v-.123c-.421-.468-.421-.468-.986-.688-.366-.007-.648.028-.903.32zm7.477 9.439c-.082.269-.082.486 0 .756.159.202.312.34.552.43.18.012.355.017.535.017h.164l.535.001.372.001h.78c.333 0 .666 0 1 .002a164.21 164.21 0 001.137.002h.515l.153.001c.3-.003.507-.041.767-.209.192-.247.266-.403.245-.717a.82.82 0 00-.165-.411c-.357-.251-.627-.311-1.053-.309l-.161-.001h-.526l-.367-.002a168.77 168.77 0 00-.769 0c-.328.001-.656 0-.983-.002a129.367 129.367 0 00-.758 0l-.363-.002-.507.001-.15-.002c-.404.005-.703.107-.953.444z" fill="#474c4e"/><path d="M54.691 12.602a19.735 19.735 0 01.35-.012l.196-.006c.216.02.325.074.498.202.318.443.26.93.261 1.455v.133c-.004 2.794-.828 5.53-1.88 8.097a27.126 27.126 0 00-.133.336c-.236.558-.236.558-.512.701-.084.031-.168.06-.254.087l-.238.097a26855.007 26855.007 0 01-.408.149 50.328 50.328 0 01-3.407 1.105 75.26 75.26 0 003.869-.184l.061.123c-.055.156-.055.156-.145.354l-.099.221-.109.239-.11.244c-1.592 3.49-1.592 3.49-2.215 3.816-2.167.736-2.167.736-3.095.715l.062.184h-.123v-.123l-1.658.246c.943.121 1.874.221 2.825.245l.213.006c.324.004.633-.019.954-.067-.037.182-.092.31-.198.463l-.084.122-.09.129-.094.133a20.038 20.038 0 01-1.218 1.53c-.157.182-.157.182-.282.387h-.122l-.047.107a1.532 1.532 0 01-.31.38l-.124.12-.134.13c-.159.158-.317.318-.474.478a11.47 11.47 0 01-1.143 1.038c-.119.093-.236.188-.354.282a16.282 16.282 0 01-2.579 1.708c-.244.124-.244.124-.363.363-.005.15-.006.298-.005.448v.137a131.022 131.022 0 01.005.768c.001.447.003.894.006 1.34a280.31 280.31 0 01.005 1.131c.006.747.006 1.494-.287 2.194l-.079.192-.075.177-.063.168c-.085.197-.208.3-.367.446l-.112.113c-.763.736-1.796 1.066-2.843 1.06h-.958l-.874-.002-.893-.001a1614.38 1614.38 0 01-1.75-.003l-.036.107c-.14.428-.307.84-.483 1.256l-.089.214c-.209.495-.386.872-.81 1.217l-.093.077c-.344.278-.702.537-1.059.797a34.485 34.485 0 00-.928.7l-.104.081a4.917 4.917 0 00-.514.464l-.184-.061a125.37 125.37 0 01.869-1.911l.138-.3a149.503 149.503 0 001.15-2.537 89.688 89.688 0 011.002-2.192l.063-.132.061-.13a3500.593 3500.593 0 00.178-.375c.17-.36.336-.72.5-1.083l.069-.15c.108-.223.108-.223.146-.464h.123l.052-.164c.064-.184.136-.356.219-.532l.09-.195.1-.21a1141.956 1141.956 0 00.332-.712 444.19 444.19 0 001.014-2.177l.065-.137c.145-.316.246-.577.184-.93l-.025-.148-.027-.153a13.011 13.011 0 01.023-4.591l.035-.185c.331-1.685.893-3.25 1.682-4.769.076-.146.076-.146.064-.328a4.21 4.21 0 01.184-.184c.053-.08.103-.162.151-.246l.087-.148.092-.159c.815-1.377 1.772-2.647 2.802-3.869l.105-.125c.39-.46.79-.901 1.22-1.323.168-.168.322-.344.476-.523.293-.333.616-.633.952-.921.156-.136.308-.276.46-.417a18.12 18.12 0 01.837-.716c.138-.111.276-.224.412-.337.58-.481 1.18-.924 1.803-1.35l.184-.127c.457-.31.928-.599 1.4-.887l.162-.1.146-.089c.136-.085.136-.085.263-.183.167-.125.352-.211.54-.302l.262-.13.144-.07c.167-.083.333-.168.5-.253l.178-.09.348-.178c.304-.154.6-.28.928-.375.116-.032.116-.032.165-.164.105-.043.105-.043.242-.084.314-.099.616-.218.921-.342l.309-.124.152-.062.771-.309v-.061zM40.752 38.751c-1.102.4-2.206.72-3.359.938l-.172.033c-.156.025-.156.025-.4.041-.195.03-.195.03-.314.184-.162.29-.282.603-.407.91a95.956 95.956 0 01-.316.766c-.328.787-.673 1.567-1.014 2.348l-.079.18-.147.338a23.85 23.85 0 00-.488 1.215 409.463 409.463 0 002.177.01l.669.002.374.002c1.133 0 2.273-.09 3.152-.881.69-.738.709-1.657.702-2.603v-.311c0-.272-.002-.544-.003-.815l-.003-.834a634.65 634.65 0 00-.006-1.632c-.128 0-.246.066-.366.109z" fill="#f7a241"/><path d="M50.945 17.76l.123.062-.081.08a954.537 954.537 0 00-1.153 1.15l-.452.45-.14.138a14.002 14.002 0 00-.724.779c-.127.147-.259.289-.39.432a18.44 18.44 0 00-.724.848 25.83 25.83 0 01-.389.464 35.085 35.085 0 00-1.106 1.37l-.114.148a50.001 50.001 0 00-1.606 2.187l-.108.156a63.875 63.875 0 00-3.417 5.5l-.279.503a87.266 87.266 0 00-3.12 6.239l-.053.116c-.167.368-.328.737-.47 1.116-.238.627-.51 1.241-.775 1.858l-.172.4c-.47 1.095-.948 2.185-1.432 3.273l.123.061H34.3l-.184.553.062-.061.061.122a476.427 476.427 0 002.072-.025c2.145.056 2.145.056 4.022-.832.55-.569.73-1.246.736-2.02l.002-.141.004-.46.004-.321.01-.842a1698.782 1698.782 0 00.029-2.544l.798-.369c.072.216.07.409.07.633v.138l.002.452v.978a177.67 177.67 0 01.004 1.808c.003.746.001 1.495-.291 2.194l-.079.192-.075.177-.063.168c-.085.197-.208.3-.367.446l-.112.113c-.763.736-1.796 1.066-2.843 1.06h-.958l-.874-.002-.893-.001a1614.38 1614.38 0 01-1.75-.003l-.036.107c-.14.428-.307.84-.483 1.256l-.089.214c-.209.495-.386.872-.81 1.217l-.093.077c-.344.278-.702.537-1.059.797a34.485 34.485 0 00-.928.7l-.104.081a4.917 4.917 0 00-.514.464l-.184-.061a125.37 125.37 0 01.869-1.911l.139-.3a149.503 149.503 0 001.15-2.537 89.688 89.688 0 011.001-2.192l.063-.132.061-.13a3500.593 3500.593 0 00.178-.375c.17-.36.336-.72.5-1.083l.069-.15c.108-.223.108-.223.146-.464h.123l.052-.164c.064-.184.136-.356.219-.532l.09-.195.1-.21a926.728 926.728 0 00.272-.583c.239-.511.476-1.023.712-1.535a642.907 642.907 0 01.362-.783l.065-.14a5.12 5.12 0 00.216-.525h.123l.044-.119c.107-.256.231-.502.355-.749l.083-.165a79.027 79.027 0 01.87-1.67l.09-.17a69.517 69.517 0 011.568-2.778l.116-.197c.477-.805.964-1.602 1.48-2.382l.148-.225a45.772 45.772 0 011.879-2.662l.183-.242a54.154 54.154 0 011.325-1.676c.08-.097.159-.196.238-.294a19.124 19.124 0 01.909-1.041c.128-.139.253-.28.377-.423.22-.252.447-.498.676-.742l.122-.13c.4-.424.802-.84 1.246-1.22.153-.135.302-.274.45-.414a19.628 19.628 0 011.23-1.065l.22-.178a41.692 41.692 0 011.438-1.111z" fill="#874815"/><path d="M41.855 38.15c.147.22.14.378.14.633V39.373a194.234 194.234 0 010 .978V42.16c.002.745 0 1.496-.293 2.194l-.079.192-.075.177-.063.168c-.085.197-.208.3-.367.446l-.112.113c-.763.736-1.796 1.066-2.843 1.06h-.147a601.914 601.914 0 00-.811 0l-.874-.002-.893-.001a1614.38 1614.38 0 01-1.75-.003 8.86 8.86 0 01.306-.798h.184l.062-.123v.123a555.834 555.834 0 002.072-.026c2.145.056 2.145.056 4.022-.832.55-.569.73-1.246.736-2.02l.002-.141.004-.46.004-.321.01-.842a1610.597 1610.597 0 00.029-2.544z" fill="#454a4c"/></svg>