<svg width="256" height="256" xmlns="http://www.w3.org/2000/svg"><path d="M116.626 61.395c3.878-.01 7.757-.02 11.635-.025 1.994-.003 3.987-.006 5.98-.013 13.907-.045 13.907-.045 20.174.305l1.216.065c3.336.22 6.661.68 9.593 2.37l.58.321c1.564.89 3.135 1.854 4.41 3.133v.614l.922.308c.482.467.482.467.96 1.036l.481.564c.401.55.401.55.708 1.47-.477.721-.477.721-1.19 1.555l-.775.914c-.718.817-1.446 1.623-2.18 2.425-1.35 1.486-2.548 3.054-3.73 4.674-.471.641-.949 1.278-1.427 1.914-2.36 3.153-4.6 6.352-6.666 9.706l-.478.776c-8.891 14.513-13.959 29.964-14.03 47.032-.003.24-.004.479-.006.725-.013 2.575.067 5.093.394 7.649.518 4.179.13 6.696-1.694 10.453l-.627 1.335c-.437.93-.877 1.86-1.319 2.788-.961 2.026-1.887 4.067-2.816 6.108-.41.9-.82 1.8-1.232 2.7a3445.53 3445.53 0 00-3.852 8.45l-.283.624a13861.43 13861.43 0 00-5.251 11.569 563.535 563.535 0 01-2.496 5.416l-.297.634-.712 1.524a31229.883 31229.883 0 01-43.053.069c-4.782.005-9.564.015-14.345.026-4.91.012-9.818.018-14.727.021-3.028.002-6.055.007-9.083.017-2.078.006-4.156.008-6.234.007-1.197-.001-2.395 0-3.593.007-1.099.006-2.198.006-3.297.002-.58 0-1.161.004-1.742.01-4.986-.035-9.25-1.884-12.867-5.282a21.354 21.354 0 01-2.172-2.667c-.366-.546-.366-.546-.97-1.115-.325-.796-.63-1.59-.92-2.399l-.48-1.31-.212-.588c-.228-.635-.228-.635-.546-1.303-.34-.969-.374-1.724-.373-2.75L8 182.094l.005-1.279-.001-1.36c-.001-1.247.001-2.493.004-3.74.003-1.344.002-2.688.001-4.032 0-2.328.002-4.657.005-6.986.005-3.367.007-6.734.008-10.1.001-5.463.005-10.926.011-16.388.006-5.307.01-10.613.013-15.92v-.991l.003-4.922c.006-13.613.017-27.227.03-40.84h.615c.082-.249.164-.498.25-.754 1.796-5.077 5.017-8.878 9.883-11.222 5.319-2.177 11.213-1.935 16.854-1.94l2.281-.01c1.848-.007 3.696-.012 5.544-.015 2.191-.004 4.382-.012 6.573-.02 3.956-.014 7.912-.025 11.867-.035 3.747-.009 7.493-.02 11.24-.032l.686-.002 2.741-.01a18566.531 18566.531 0 0129.959-.076c3.35-.006 6.702-.014 10.054-.024zM34.872 93.96l-.384.614-.614.921c-.098.73-.098.73-.077 1.516l-.005.796c.085.796.294 1.3.696 1.987h.614l.25.553c.368.682.735 1.113 1.289 1.65l.549.538.58.56c1.397 1.367 2.743 2.73 3.956 4.267.418.469.418.469 1.07.554l.597.17.245.522c.5.956 1.181 1.575 1.952 2.327l.468.461c.492.484.986.967 1.48 1.449.651.635 1.3 1.271 1.948 1.91.29.281.578.563.875.853.763.827 1.34 1.458 1.304 2.61-.407.867-1.075 1.267-1.824 1.843v.614l-.92.307c-.679.576-.679.576-1.23 1.229v.614h-.613c-1.174 1.056-1.174 1.056-1.843 2.456l-1.228.614-.307.922c-.406.211-.816.415-1.228.614-.457.4-.9.818-1.33 1.247l-.743.742-.768.774-.782.775-.739.742-.678.68c-.554.52-.554.52-.488 1.181h-.614v.614l-.921.307c-1.316 1.471-1.647 2.592-1.622 4.52.176 1.427 1.041 2.262 2.006 3.253 1.442.885 2.733.898 4.356.691 2.008-.88 3.43-2.43 4.844-4.072 1.255-1.449 2.603-2.794 3.966-4.142l.73-.726 1.391-1.381c.715-.71 1.428-1.422 2.14-2.134l3.377-3.378.728-.732a174.62 174.62 0 012.28-2.221c.551-.539 1.104-1.077 1.656-1.615l.85-.812c2.03-1.897 2.03-1.897 2.777-4.447-.573-1.689-1.222-2.57-2.599-3.75l-.998-.88-.511-.45a54.66 54.66 0 01-2.26-2.184l-.44-.443-.899-.907c-.476-.482-.954-.963-1.433-1.444a2560.04 2560.04 0 01-4.064-4.097c-.836-.843-1.672-1.685-2.51-2.526-.317-.32-.634-.639-.95-.96a387.37 387.37 0 00-1.317-1.326c-.25-.252-.5-.503-.756-.763-.55-.604-.55-.604-1.223-.537v-.614h-.614v-.614c-2.105-2.342-2.105-2.342-4.929-3.44-1.832-.038-3.238.14-4.513 1.598zm37.386 47.193c-.406 1.346-.41 2.433 0 3.781.797 1.013 1.56 1.7 2.763 2.15.902.06 1.774.087 2.676.084l.817.005c.892.004 1.784.004 2.675.003l1.861.004c1.3.002 2.601.002 3.902 0 1.665-.001 3.33.004 4.995.011 1.282.005 2.563.005 3.844.004.614 0 1.228.002 1.842.005.86.004 1.718.002 2.577-.002l.766.007c1.5-.014 2.535-.206 3.832-1.043.964-1.236 1.334-2.018 1.228-3.589-.153-.892-.292-1.302-.825-2.053-1.786-1.255-3.137-1.556-5.265-1.544l-.807-.007c-.877-.005-1.754-.004-2.63-.003l-1.836-.004a843.849 843.849 0 00-3.843 0c-1.64.004-3.278-.002-4.917-.011a646.833 646.833 0 00-3.79-.004c-.604 0-1.208-.002-1.812-.006-.846-.004-1.692 0-2.538.004l-.75-.009c-2.019.026-3.511.532-4.765 2.217z" fill="#474c4e"/><path d="M241.456 31.01a98.676 98.676 0 011.746-.058l.983-.032c1.08.101 1.625.37 2.49 1.01 1.592 2.216 1.304 4.652 1.306 7.275v.665c-.02 13.968-4.141 27.65-9.402 40.486a135.63 135.63 0 00-.666 1.68c-1.177 2.79-1.177 2.79-2.556 3.504-.42.157-.843.302-1.271.436-.398.16-.795.32-1.192.482a134275.103 134275.103 0 01-2.039.746c-5.615 2.024-11.292 3.908-17.036 5.527 6.463-.152 12.898-.436 19.346-.92l.307.613c-.278.78-.278.78-.725 1.77l-.496 1.107-.545 1.192-.555 1.221c-7.957 17.447-7.957 17.447-11.07 19.083-10.835 3.679-10.835 3.679-15.474 3.571l.307.921h-.614v-.614l-8.291 1.228c4.717.607 9.37 1.109 14.125 1.229l1.064.027c1.62.02 3.169-.093 4.77-.334-.185.912-.46 1.55-.99 2.315l-.42.612-.451.642-.465.668c-1.88 2.677-3.96 5.17-6.09 7.65-.787.909-.787.909-1.41 1.931h-.614l-.234.539c-.428.776-.914 1.283-1.55 1.898l-.621.604-.666.644c-.797.792-1.588 1.59-2.372 2.394-1.814 1.855-3.666 3.59-5.715 5.19-.593.464-1.18.936-1.768 1.407-4.07 3.242-8.285 6.12-12.895 8.542-1.223.617-1.223.617-1.816 1.813-.024.75-.032 1.49-.025 2.24l.003.688a655.109 655.109 0 01.02 3.839c.007 2.234.018 4.467.032 6.7.008 1.367.013 2.734.017 4.101.001.518.004 1.036.009 1.554.03 3.732.026 7.471-1.438 10.97l-.393.96-.374.883-.316.839c-.424.989-1.039 1.504-1.834 2.232l-.564.567c-3.812 3.678-8.978 5.328-14.211 5.302h-.736c-.798 0-1.595-.002-2.393-.005h-1.665l-4.37-.008c-1.489-.004-2.977-.005-4.465-.006a8071.9 8071.9 0 01-8.752-.015l-.174.535c-.702 2.14-1.539 4.204-2.417 6.278l-.444 1.07c-1.046 2.476-1.932 4.36-4.047 6.088l-.471.386c-1.72 1.387-3.51 2.682-5.293 3.985a172.424 172.424 0 00-4.638 3.498l-.521.407a24.586 24.586 0 00-2.569 2.318c-.304-.1-.608-.202-.921-.307a626.848 626.848 0 014.342-9.553l.694-1.5a747.514 747.514 0 005.75-12.687 448.438 448.438 0 015.01-10.959l.312-.66.307-.65a17502.975 17502.975 0 00.887-1.873c.85-1.798 1.684-3.603 2.504-5.415l.343-.75c.542-1.117.542-1.117.732-2.32h.614l.261-.82c.318-.922.678-1.78 1.092-2.663l.455-.972.495-1.054a5709.783 5709.783 0 001.661-3.558c1.09-2.33 2.178-4.662 3.26-6.996.25-.537.5-1.074.752-1.61.354-.758.707-1.517 1.059-2.277l.323-.687c.728-1.579 1.23-2.886.922-4.645l-.125-.745-.136-.766c-1.298-7.532-1.308-15.434.115-22.954l.175-.925c1.656-8.422 4.464-16.253 8.412-23.842.38-.73.38-.73.318-1.641.297-.317.605-.623.921-.921.265-.402.516-.812.756-1.229l.432-.74.463-.795c4.071-6.887 8.858-13.237 14.01-19.346l.525-.623c1.946-2.303 3.944-4.508 6.1-6.617.839-.838 1.61-1.718 2.38-2.617 1.465-1.663 3.077-3.162 4.756-4.604.78-.68 1.54-1.381 2.303-2.082a90.6 90.6 0 014.185-3.58c.691-.558 1.377-1.12 2.06-1.689 2.903-2.404 5.902-4.619 9.012-6.746l.922-.636c2.286-1.552 4.641-2.994 6.999-4.437l.812-.498.728-.445c.68-.424.68-.424 1.315-.916.837-.625 1.761-1.057 2.697-1.512l1.314-.647.718-.353c.836-.415 1.668-.837 2.499-1.261l.895-.455c.58-.294 1.158-.59 1.736-.886 1.52-.769 3-1.404 4.64-1.874.584-.164.584-.164.827-.82.527-.218.527-.218 1.21-.423 1.568-.494 3.082-1.088 4.605-1.707l1.544-.622.761-.308c1.284-.519 2.57-1.032 3.856-1.545v-.308zm-69.694 130.745c-5.512 2-11.03 3.604-16.796 4.691l-.862.163c-.779.127-.779.127-1.997.206-.975.149-.975.149-1.574.92-.81 1.449-1.409 3.017-2.034 4.552a479.78 479.78 0 01-1.58 3.826c-1.641 3.935-3.364 7.835-5.07 11.742l-.394.904c-.245.562-.49 1.125-.737 1.687a119.253 119.253 0 00-2.44 6.076c2.478.015 4.956.026 7.433.032 1.151.003 2.302.008 3.453.015 1.115.007 2.23.01 3.345.012.623.001 1.246.006 1.87.011 5.667 0 11.365-.448 15.759-4.407 3.45-3.688 3.545-8.284 3.514-13.013l-.003-1.558c-.002-1.359-.008-2.717-.015-4.076-.006-1.39-.009-2.779-.012-4.168-.006-2.72-.017-5.44-.03-8.161-.64 0-1.234.329-1.83.546z" fill="#f7a241"/><path d="M222.724 56.804l.614.307-.405.403a4772.686 4772.686 0 00-5.764 5.743l-2.257 2.25-.7.695a70.01 70.01 0 00-3.623 3.892c-.634.736-1.293 1.446-1.952 2.16a92.201 92.201 0 00-3.619 4.242 129.15 129.15 0 01-1.942 2.32 175.423 175.423 0 00-5.532 6.853l-.568.735c-2.766 3.584-5.462 7.205-8.03 10.934l-.54.782c-6.14 8.906-11.879 18.018-17.088 27.5-.461.839-.926 1.676-1.391 2.514-5.628 10.17-10.807 20.607-15.604 31.194l-.265.583c-.834 1.841-1.64 3.685-2.352 5.577-1.186 3.138-2.544 6.208-3.87 9.29l-.86 2.005c-2.351 5.47-4.74 10.923-7.162 16.362l.614.307h-.921l-.921 2.763.307-.307.307.614c2.357-.026 4.715-.055 7.072-.088 1.095-.015 2.19-.03 3.286-.041 10.729.28 10.729.28 20.113-4.16 2.745-2.843 3.646-6.23 3.677-10.094l.01-.709c.01-.768.017-1.535.024-2.303l.02-1.603c.017-1.402.032-2.805.047-4.207a8493.916 8493.916 0 00.144-12.722l3.991-1.843c.359 1.076.353 2.043.352 3.161l.003.69c.003.753.004 1.506.004 2.26l.003 1.578c.002 1.105.002 2.21.002 3.316 0 1.407.004 2.813.01 4.22.003 1.088.004 2.177.003 3.265 0 .518.002 1.036.005 1.554.015 3.728.005 7.476-1.457 10.97l-.393.96-.374.883-.316.839c-.424.989-1.039 1.504-1.834 2.232l-.564.567c-3.812 3.678-8.978 5.328-14.211 5.302h-.736c-.798 0-1.595-.002-2.393-.005h-1.665l-4.37-.008c-1.489-.004-2.977-.005-4.465-.006a8071.9 8071.9 0 01-8.752-.015l-.174.535c-.702 2.14-1.539 4.204-2.417 6.278l-.444 1.07c-1.046 2.476-1.932 4.36-4.047 6.088l-.471.386c-1.72 1.387-3.51 2.682-5.293 3.985a172.424 172.424 0 00-4.638 3.498l-.521.407a24.586 24.586 0 00-2.569 2.318c-.304-.1-.608-.202-.921-.307a626.848 626.848 0 014.342-9.553l.695-1.5a747.514 747.514 0 005.749-12.687 448.438 448.438 0 015.01-10.959l.312-.66.307-.65a17502.975 17502.975 0 00.887-1.873c.85-1.798 1.684-3.603 2.504-5.415l.343-.75c.542-1.117.542-1.117.732-2.32h.614l.261-.82c.318-.922.678-1.78 1.092-2.663l.455-.972.495-1.054a4633.64 4633.64 0 001.36-2.91c1.194-2.557 2.379-5.117 3.562-7.678a3214.536 3214.536 0 011.81-3.913l.323-.697c.401-.87.78-1.722 1.083-2.631h.614l.22-.593c.534-1.278 1.154-2.508 1.776-3.745l.413-.824a395.137 395.137 0 014.347-8.35l.454-.854a347.585 347.585 0 017.837-13.885l.583-.986c2.386-4.026 4.818-8.01 7.4-11.911l.74-1.127c2.986-4.535 6.093-8.995 9.394-13.306l.915-1.21a270.772 270.772 0 016.625-8.382c.4-.487.795-.978 1.19-1.47a95.62 95.62 0 014.544-5.207c.643-.693 1.267-1.4 1.888-2.115 1.099-1.26 2.231-2.488 3.378-3.706l.61-.649c2.001-2.123 4.012-4.205 6.23-6.104.766-.675 1.51-1.37 2.254-2.069a98.142 98.142 0 016.144-5.323l1.104-.891a208.458 208.458 0 017.187-5.557z" fill="#874815"/><path d="M177.277 158.752c.735 1.102.701 1.89.694 3.161l.003.69c.003.753 0 1.506-.001 2.26a971.172 971.172 0 01-.001 4.894c-.004 1.407-.002 2.813.002 4.22.002 1.088.001 2.177 0 3.265l.001 1.554c.008 3.726-.004 7.478-1.466 10.97l-.393.96-.374.883-.316.839c-.424.989-1.039 1.504-1.834 2.232l-.564.567c-3.812 3.678-8.978 5.328-14.211 5.302h-.736a3009.57 3009.57 0 00-4.058-.006c-1.457-.001-2.913-.004-4.37-.007-1.489-.004-2.977-.005-4.465-.006a8071.9 8071.9 0 01-8.752-.015 44.297 44.297 0 011.536-3.992h.92l.308-.615v.615c2.357-.027 4.715-.056 7.072-.089 1.095-.015 2.19-.03 3.286-.041 10.729.28 10.729.28 20.113-4.16 2.745-2.843 3.646-6.23 3.677-10.094l.01-.709c.01-.767.017-1.535.024-2.303l.02-1.603c.017-1.402.032-2.805.047-4.207a8052.99 8052.99 0 00.144-12.722l3.684-1.843z" fill="#454a4c"/></svg>